<svg xmlns="http://www.w3.org/2000/svg" viewBox="0 0 512 512" fill="none">
  <circle cx="256" cy="256" r="240" fill="#0f172a" stroke="#334155" stroke-width="16"/>
  <g transform="rotate(-90 256 256)">
    <path d="M256 16 A240 240 0 0 1 424.7 215.7" fill="#ef4444"/>
    <path d="M424.7 215.7 A240 240 0 0 1 424.7 296.3" fill="#f97316"/>
    <path d="M424.7 296.3 A240 240 0 0 1 256 496" fill="#eab308"/>
    <path d="M256 496 A240 240 0 0 1 87.3 296.3" fill="#22c55e"/>
    <path d="M87.3 296.3 A240 240 0 0 1 87.3 215.7" fill="#06b6d4"/>
    <path d="M87.3 215.7 A240 240 0 0 1 256 16" fill="#3b82f6"/>
  </g>
  <circle cx="256" cy="256" r="80" fill="#0f172a" stroke="#334155" stroke-width="8"/>
  <circle cx="256" cy="100" r="12" fill="#e5e7eb"/>
</svg>
